PathFileType	4	(X/Y/Z)	C:/Users/opensim2020/Desktop/walking_exp_matlab/subject06_walking13_straight_02.trc																																																																																																																																																				
DataRate	CameraRate	NumFrames	NumMarkers	Units	OrigDataRate	OrigDataStartFrame	OrigNumFrames																																																																																																																																																
100	100	4	50	mm	100	1586	199																																																																																																																																																
Frame#	Time	LFHD			RFHD			LBHD			RBHD			C7			T10			CLAV			STRN			RBAK			LSHO			LUPA			LELB			LFRM			LWRA			LWRB			LFIN			RSHO			RUPA			RELB			RFRM			RWRA			RWRB			RFIN			LASI			RASI			LPSI			RPSI			LTHI			LKNE			LTIB			LANK			LHEE			LTOE			RTHI			RKNE			RTIB			RANK			RHEE			RTOE			*39			*40			*41			*42			*43			*44			*45			*46			*47			*48			*49		
		X1	Y1	Z1	X2	Y2	Z2	X3	Y3	Z3	X4	Y4	Z4	X5	Y5	Z5	X6	Y6	Z6	X7	Y7	Z7	X8	Y8	Z8	X9	Y9	Z9	X10	Y10	Z10	X11	Y11	Z11	X12	Y12	Z12	X13	Y13	Z13	X14	Y14	Z14	X15	Y15	Z15	X16	Y16	Z16	X17	Y17	Z17	X18	Y18	Z18	X19	Y19	Z19	X20	Y20	Z20	X21	Y21	Z21	X22	Y22	Z22	X23	Y23	Z23	X24	Y24	Z24	X25	Y25	Z25	X26	Y26	Z26	X27	Y27	Z27	X28	Y28	Z28	X29	Y29	Z29	X30	Y30	Z30	X31	Y31	Z31	X32	Y32	Z32	X33	Y33	Z33	X34	Y34	Z34	X35	Y35	Z35	X36	Y36	Z36	X37	Y37	Z37	X38	Y38	Z38	X39	Y39	Z39	X40	Y40	Z40	X41	Y41	Z41	X42	Y42	Z42	X43	Y43	Z43	X44	Y44	Z44	X45	Y45	Z45	X46	Y46	Z46	X47	Y47	Z47	X48	Y48	Z48	X49	Y49	Z49	X50	Y50	Z50
																																																																																																																																																							
50	0.49	-502.46249	1666.86279	-1529.60168	-507.33472	1656.70325	-1398.58203	-639.92139	1620.2561	-1533.37415	-642.3028	1615.98193	-1404.86304	-650.11133	1459.35571	-1475.9259	-685.19604	1129.35486	-1468.39185	-540.31323	1381.42322	-1470.08191	-502.17276	1205.16162	-1473.35046	-727.1051	1288.35156	-1399.53003	-587.88464	1411.75403	-1633.19214	-583.95758	1211.03955	-1710.34277	-585.133	1098.94739	-1725.52832	-549.83423	953.71924	-1749.88257	-487.60812	841.17743	-1703.23169	-542.4187	834.01324	-1748.98254	-495.26062	756.55847	-1747.17688	-591.98132	1411.77222	-1310.92712	-628.53979	1208.95984	-1229.16589	-616.85577	1086.87561	-1221.18164	-603.37036	966.69916	-1206.30164	-546.15198	826.45282	-1238.14795	-600.95355	828.73132	-1199.29321	-565.55713	752.79858	-1196.04932	-503.04031	972.75043	-1571.12085	-512.39172	974.20386	-1351.20215	-661.97552	996.83252	-1547.9364	-662.1012	993.88019	-1380.26624	-551.19403	656.38788	-1626.44275	-541.79681	493.66306	-1599.59253	-583.82135	239.57484	-1586.33972	-597.6308	69.38557	-1541.03198	-639.45703	56.24317	-1497.07471	-452.94226	41.49617	-1533.35535	-504.55338	641.77765	-1292.70959	-463.98047	521.56378	-1310.47729	-626.97339	326.29379	-1321.85583	-755.2049	193.64029	-1368.45032	-798.73645	197.54948	-1416.99951	-664.36505	66.44753	-1361.66772	-602.77002	1711.80176	-1473.69128	NaN	NaN	NaN	NaN	NaN	NaN	NaN	NaN	NaN	NaN	NaN	NaN	NaN	NaN	NaN	NaN	NaN	NaN	NaN	NaN	NaN	NaN	NaN	NaN	NaN	NaN	NaN	NaN	NaN	NaN
51	0.5	-492.06039	1667.24402	-1529.77271	-497.11047	1656.75159	-1398.69214	-629.56836	1620.59961	-1533.72241	-632.04791	1616.07642	-1405.16724	-639.9314	1459.7041	-1476.48303	-675.7951	1129.81409	-1469.29504	-530.38275	1381.59399	-1470.55457	-492.40134	1205.33154	-1474.17078	-717.28424	1289.00269	-1400.49707	-577.4903	1412.15613	-1633.64258	-570.08069	1211.68445	-1711.1134	-568.61902	1099.60461	-1726.83887	-529.4024	955.37659	-1751.21582	-464.64484	844.53442	-1704.51038	-518.79419	836.10797	-1750.60559	-469.57022	759.91895	-1748.62378	-581.92841	1411.86816	-1311.40308	-621.23804	1209.19788	-1230.08118	-611.42279	1087.12769	-1222.27417	-600.80328	966.65643	-1207.34692	-547.20532	824.90356	-1239.32068	-601.85248	828.62152	-1200.22754	-568.86359	751.61993	-1197.08008	-493.55051	972.79852	-1572.42102	-502.54517	975.01147	-1352.37244	-652.80756	996.97302	-1548.46252	-652.4267	994.39514	-1380.76221	-544.53754	656.12415	-1626.73169	-537.00922	493.18744	-1599.84607	-581.39996	239.47148	-1586.58582	-597.23779	69.35403	-1540.87756	-639.22198	56.23423	-1496.97034	-452.92087	41.32814	-1533.54944	-490.48889	643.80438	-1293.3866	-448.11996	524.35962	-1312.00586	-605.16187	322.9256	-1322.67224	-728.26495	185.41371	-1368.97815	-771.89758	186.69394	-1417.60364	-630.78711	64.2606	-1361.16113	-592.40161	1712.01245	-1473.76611	NaN	NaN	NaN	NaN	NaN	NaN	NaN	NaN	NaN	NaN	NaN	NaN	NaN	NaN	NaN	NaN	NaN	NaN	NaN	NaN	NaN	NaN	NaN	NaN	NaN	NaN	NaN	NaN	NaN	NaN
52	0.51	-481.69379	1667.37195	-1529.83716	-486.93005	1656.67444	-1398.77661	-619.21771	1620.91345	-1534.01233	-621.82703	1616.10193	-1405.40295	-629.8692	1459.97778	-1477.07556	-666.37457	1130.11877	-1470.22693	-520.38324	1381.6676	-1470.99792	-482.72873	1205.36646	-1474.91406	-707.43475	1289.50513	-1401.52698	-567.15985	1412.47241	-1634.05737	-556.45416	1212.36475	-1711.89075	-552.5412	1100.39172	-1728.18054	-509.26447	957.20239	-1752.59644	-441.5676	848.30273	-1705.70483	-495.22513	838.39417	-1752.05884	-443.93729	763.61267	-1749.80457	-571.96863	1411.8208	-1311.82166	-613.44641	1209.521	-1230.6554	-605.96307	1087.36023	-1223.31873	-598.14581	966.685	-1208.32239	-548.38324	823.49615	-1240.3418	-602.51813	828.7724	-1201.01794	-571.45093	750.55988	-1198.33301	-484.6568	972.52936	-1573.4574	-492.77893	975.69971	-1353.37976	-643.61609	997.05872	-1548.97925	-642.76569	994.84137	-1381.19287	-537.55341	655.81464	-1626.74329	-532.0838	492.72797	-1600.04871	-578.84821	239.30305	-1586.8916	-596.71625	69.43016	-1540.95581	-639.28845	56.6041	-1497.30701	-452.55457	41.11228	-1533.36414	-476.50076	645.72937	-1294.11047	-432.71356	526.88983	-1313.56299	-583.34125	319.34595	-1323.58997	-700.54272	176.68507	-1369.54517	-744.09796	175.44188	-1418.46423	-596.96246	62.26166	-1360.14832	-582.01953	1712.14758	-1473.83203	NaN	NaN	NaN	NaN	NaN	NaN	NaN	NaN	NaN	NaN	NaN	NaN	NaN	NaN	NaN	NaN	NaN	NaN	NaN	NaN	NaN	NaN	NaN	NaN	NaN	NaN	NaN	NaN	NaN	NaN
53	0.52	-471.32559	1667.37085	-1529.94275	-476.67496	1656.44849	-1398.92151	-608.86829	1621.07336	-1534.29614	-611.64978	1616.04419	-1405.72778	-619.79803	1460.07434	-1477.57788	-656.77039	1130.28552	-1471.08752	-510.45755	1381.64429	-1471.4364	-473.11603	1205.33887	-1475.57324	-697.62646	1289.78833	-1402.62524	-557.02338	1412.67334	-1634.55713	-543.14929	1212.92126	-1712.61658	-536.77057	1101.04736	-1729.30737	-489.53171	959.24426	-1753.91895	-418.66977	852.4165	-1706.8064	-471.88577	840.88776	-1753.20618	-418.41953	767.71674	-1750.88916	-562.09625	1411.70984	-1312.24121	-605.8573	1209.77039	-1231.49731	-600.51349	1087.57104	-1224.24707	-595.27618	966.78345	-1209.32886	-549.08954	822.35785	-1241.39429	-603.05554	828.91736	-1201.8479	-574.14575	749.8172	-1199.48633	-475.72354	972.16333	-1574.32178	-482.96848	976.19647	-1354.22632	-634.40167	996.98444	-1549.39966	-633.13525	995.15845	-1381.62671	-530.64227	655.40186	-1626.77441	-527.12054	492.19077	-1600.29456	-576.40942	239.15482	-1587.13953	-596.37061	69.53597	-1540.94092	-638.5705	56.76689	-1496.94995	-451.95547	40.74439	-1533.07642	-462.80319	647.45203	-1294.78455	-417.99689	529.27838	-1315.09839	-561.5766	315.54071	-1324.48901	-672.30402	167.66779	-1369.92139	-715.67169	163.71133	-1418.88672	-562.93414	59.46104	-1359.82947	-571.58069	1712.13123	-1473.90918	NaN	NaN	NaN	NaN	NaN	NaN	NaN	NaN	NaN	NaN	NaN	NaN	NaN	NaN	NaN	NaN	NaN	NaN	NaN	NaN	NaN	NaN	NaN	NaN	NaN	NaN	NaN	NaN	NaN	NaN
